<mxfile host="app.diagrams.net" modified="2023-08-02T09:32:27.850Z" agent="Mozilla/5.0 (Windows NT 10.0; Win64; x64) AppleWebKit/537.36 (KHTML, like Gecko) Chrome/115.0.0.0 Safari/537.36" etag="kk_CRC3xyMd2odU_mGJt" version="21.2.1" type="github">
  <diagram id="HX5heXdyDiW7I8K5gOUd" name="第 1 页">
    <mxGraphModel dx="1290" dy="566" grid="1" gridSize="10" guides="1" tooltips="1" connect="1" arrows="1" fold="1" page="1" pageScale="1" pageWidth="827" pageHeight="1169" math="0" shadow="0">
      <root>
        <mxCell id="0" />
        <mxCell id="1" parent="0" />
        <mxCell id="iZUOgQ2pmpRtyo6XI6EA-1" value="创建外部组织" style="shape=umlFrame;whiteSpace=wrap;html=1;pointerEvents=0;width=90;height=20;" vertex="1" parent="1">
          <mxGeometry x="99" y="90" width="631" height="150" as="geometry" />
        </mxCell>
        <mxCell id="iZUOgQ2pmpRtyo6XI6EA-2" value="管理员" style="shape=umlActor;verticalLabelPosition=bottom;verticalAlign=top;html=1;" vertex="1" parent="1">
          <mxGeometry x="120" y="30" width="20" height="30" as="geometry" />
        </mxCell>
        <mxCell id="iZUOgQ2pmpRtyo6XI6EA-14" value="&lt;font style=&quot;font-size: 18px;&quot;&gt;管理系统&lt;/font&gt;" style="html=1;whiteSpace=wrap;" vertex="1" parent="1">
          <mxGeometry x="340" y="40" width="100" height="40" as="geometry" />
        </mxCell>
        <mxCell id="iZUOgQ2pmpRtyo6XI6EA-15" value="&lt;font style=&quot;font-size: 18px;&quot;&gt;天印&lt;/font&gt;" style="html=1;whiteSpace=wrap;" vertex="1" parent="1">
          <mxGeometry x="640" y="40" width="100" height="40" as="geometry" />
        </mxCell>
        <mxCell id="iZUOgQ2pmpRtyo6XI6EA-18" value="" style="endArrow=none;dashed=1;html=1;rounded=0;entryX=0.5;entryY=1;entryDx=0;entryDy=0;exitX=0.46;exitY=1.014;exitDx=0;exitDy=0;exitPerimeter=0;" edge="1" parent="1" source="iZUOgQ2pmpRtyo6XI6EA-39" target="iZUOgQ2pmpRtyo6XI6EA-14">
          <mxGeometry width="50" height="50" relative="1" as="geometry">
            <mxPoint x="390" y="640" as="sourcePoint" />
            <mxPoint x="540" y="170" as="targetPoint" />
          </mxGeometry>
        </mxCell>
        <mxCell id="iZUOgQ2pmpRtyo6XI6EA-19" value="" style="endArrow=none;dashed=1;html=1;rounded=0;entryX=0.5;entryY=1;entryDx=0;entryDy=0;exitX=0.934;exitY=1.009;exitDx=0;exitDy=0;exitPerimeter=0;" edge="1" parent="1" source="iZUOgQ2pmpRtyo6XI6EA-39" target="iZUOgQ2pmpRtyo6XI6EA-15">
          <mxGeometry width="50" height="50" relative="1" as="geometry">
            <mxPoint x="690" y="730" as="sourcePoint" />
            <mxPoint x="540" y="170" as="targetPoint" />
          </mxGeometry>
        </mxCell>
        <mxCell id="iZUOgQ2pmpRtyo6XI6EA-20" value="" style="endArrow=none;dashed=1;html=1;rounded=0;exitX=0.048;exitY=1;exitDx=0;exitDy=0;exitPerimeter=0;" edge="1" parent="1" source="iZUOgQ2pmpRtyo6XI6EA-39" target="iZUOgQ2pmpRtyo6XI6EA-2">
          <mxGeometry width="50" height="50" relative="1" as="geometry">
            <mxPoint x="130" y="730" as="sourcePoint" />
            <mxPoint x="540" y="170" as="targetPoint" />
          </mxGeometry>
        </mxCell>
        <mxCell id="iZUOgQ2pmpRtyo6XI6EA-21" value="" style="endArrow=classic;html=1;rounded=0;" edge="1" parent="1">
          <mxGeometry width="50" height="50" relative="1" as="geometry">
            <mxPoint x="390" y="110" as="sourcePoint" />
            <mxPoint x="690" y="110" as="targetPoint" />
          </mxGeometry>
        </mxCell>
        <mxCell id="iZUOgQ2pmpRtyo6XI6EA-23" value="新建外部组织" style="text;html=1;align=center;verticalAlign=middle;resizable=0;points=[];autosize=1;strokeColor=none;fillColor=none;" vertex="1" parent="1">
          <mxGeometry x="480" y="90" width="100" height="30" as="geometry" />
        </mxCell>
        <mxCell id="iZUOgQ2pmpRtyo6XI6EA-27" value="organizationCode" style="html=1;verticalAlign=bottom;endArrow=open;dashed=1;endSize=8;edgeStyle=elbowEdgeStyle;elbow=vertical;curved=0;rounded=0;" edge="1" parent="1">
          <mxGeometry relative="1" as="geometry">
            <mxPoint x="690" y="150" as="sourcePoint" />
            <mxPoint x="390" y="150" as="targetPoint" />
          </mxGeometry>
        </mxCell>
        <mxCell id="iZUOgQ2pmpRtyo6XI6EA-29" value="" style="endArrow=classic;html=1;rounded=0;" edge="1" parent="1">
          <mxGeometry width="50" height="50" relative="1" as="geometry">
            <mxPoint x="390" y="180" as="sourcePoint" />
            <mxPoint x="690" y="180" as="targetPoint" />
          </mxGeometry>
        </mxCell>
        <mxCell id="iZUOgQ2pmpRtyo6XI6EA-30" value="新建外部用户" style="text;html=1;align=center;verticalAlign=middle;resizable=0;points=[];autosize=1;strokeColor=none;fillColor=none;" vertex="1" parent="1">
          <mxGeometry x="475" y="160" width="100" height="30" as="geometry" />
        </mxCell>
        <mxCell id="iZUOgQ2pmpRtyo6XI6EA-31" value="userCode" style="html=1;verticalAlign=bottom;endArrow=open;dashed=1;endSize=8;edgeStyle=elbowEdgeStyle;elbow=vertical;curved=0;rounded=0;" edge="1" parent="1">
          <mxGeometry relative="1" as="geometry">
            <mxPoint x="690" y="210" as="sourcePoint" />
            <mxPoint x="390" y="210" as="targetPoint" />
            <mxPoint as="offset" />
          </mxGeometry>
        </mxCell>
        <mxCell id="iZUOgQ2pmpRtyo6XI6EA-32" value="修改外部用户" style="shape=umlFrame;whiteSpace=wrap;html=1;pointerEvents=0;width=91;height=20;" vertex="1" parent="1">
          <mxGeometry x="99" y="270" width="631" height="160" as="geometry" />
        </mxCell>
        <mxCell id="iZUOgQ2pmpRtyo6XI6EA-33" value="" style="endArrow=classic;html=1;rounded=0;" edge="1" parent="1">
          <mxGeometry width="50" height="50" relative="1" as="geometry">
            <mxPoint x="390" y="320" as="sourcePoint" />
            <mxPoint x="690" y="320" as="targetPoint" />
          </mxGeometry>
        </mxCell>
        <mxCell id="iZUOgQ2pmpRtyo6XI6EA-34" value="&lt;div style=&quot;background-color: rgb(255, 255, 254); line-height: 18px;&quot;&gt;otherOrganization&lt;/div&gt;" style="text;html=1;align=center;verticalAlign=middle;resizable=0;points=[];autosize=1;strokeColor=none;fillColor=none;" vertex="1" parent="1">
          <mxGeometry x="480" y="290" width="120" height="30" as="geometry" />
        </mxCell>
        <mxCell id="iZUOgQ2pmpRtyo6XI6EA-35" value="userCode" style="html=1;verticalAlign=bottom;endArrow=open;dashed=1;endSize=8;edgeStyle=elbowEdgeStyle;elbow=vertical;curved=0;rounded=0;" edge="1" parent="1">
          <mxGeometry relative="1" as="geometry">
            <mxPoint x="690" y="370" as="sourcePoint" />
            <mxPoint x="390" y="370" as="targetPoint" />
            <mxPoint as="offset" />
          </mxGeometry>
        </mxCell>
        <mxCell id="iZUOgQ2pmpRtyo6XI6EA-39" value="发起外部兼职签署" style="shape=umlFrame;whiteSpace=wrap;html=1;pointerEvents=0;width=111;height=20;" vertex="1" parent="1">
          <mxGeometry x="99" y="460" width="631" height="170" as="geometry" />
        </mxCell>
        <mxCell id="iZUOgQ2pmpRtyo6XI6EA-40" value="" style="endArrow=classic;html=1;rounded=0;" edge="1" parent="1">
          <mxGeometry width="50" height="50" relative="1" as="geometry">
            <mxPoint x="390" y="530" as="sourcePoint" />
            <mxPoint x="690" y="530" as="targetPoint" />
          </mxGeometry>
        </mxCell>
        <mxCell id="iZUOgQ2pmpRtyo6XI6EA-41" value="相对方信息要填写：&lt;br&gt;&lt;div style=&quot;background-color: rgb(255, 255, 254); line-height: 18px;&quot;&gt;departmentCode，&lt;/div&gt;&lt;div style=&quot;background-color: rgb(255, 255, 254); line-height: 18px;&quot;&gt;&lt;div style=&quot;line-height: 18px;&quot;&gt;organizationCode&lt;/div&gt;&lt;/div&gt;" style="text;html=1;align=center;verticalAlign=middle;resizable=0;points=[];autosize=1;strokeColor=none;fillColor=none;" vertex="1" parent="1">
          <mxGeometry x="465" y="470" width="130" height="60" as="geometry" />
        </mxCell>
        <mxCell id="iZUOgQ2pmpRtyo6XI6EA-42" value="签署链接url" style="html=1;verticalAlign=bottom;endArrow=open;dashed=1;endSize=8;edgeStyle=elbowEdgeStyle;elbow=vertical;curved=0;rounded=0;" edge="1" parent="1">
          <mxGeometry relative="1" as="geometry">
            <mxPoint x="690" y="590" as="sourcePoint" />
            <mxPoint x="390" y="590" as="targetPoint" />
            <mxPoint as="offset" />
          </mxGeometry>
        </mxCell>
      </root>
    </mxGraphModel>
  </diagram>
</mxfile>
